#!OML:ASF F:\twosubjects\two\Thursday\Session 1\justin.ASF
:FULLY-SPECIFIED
:DEGREES
421
root 6.5212 17.259 -6.78701 26.0954 -0.47507 3.04007
lowerback 24.5732 0.296175 -0.0491633
upperback 5.55273 0.524712 1.69892
thorax -7.5523 0.260643 1.73267
lowerneck -17.6092 -4.74845 -12.7257
upperneck 9.12156 -4.73925 10.0154
head 6.18301 -1.98781 4.80091
rclavicle -3.97569e-015 -1.59028e-014
rhumerus -10.3857 32.4829 -80.4068
rradius 62.2401
rwrist 21.4194
rhand -46.5228 28.9642
rfingers 7.12502
rthumb -19.2484 -0.103192
lclavicle -3.97569e-015 -1.59028e-014
lhumerus -6.27415 -38.2008 85.107
lradius 55.8113
lwrist -34.4309
lhand -22.3138 61.2472
lfingers 7.12502
lthumb 4.10573 -451.187
rfemur -44.3572 -8.91231 2.31988
rtibia 38.0108
rfoot -15.4973 -11.3891
rtoes -29.7176
lfemur -36.708 6.40759 -7.18535
ltibia 22.9538
lfoot -9.96314 0.897913
ltoes -32.5559
422
root 6.52613 17.2603 -6.7817 26.0067 -0.563716 2.99518
lowerback 24.6317 0.32675 -0.0873917
upperback 5.55703 0.558103 1.73979
thorax -7.57923 0.277232 1.78967
lowerneck -16.5702 -4.70853 -13.4389
upperneck 8.22691 -4.69648 10.7192
head 5.76302 -1.96168 5.15567
rclavicle 3.97569e-015 -9.54166e-015
rhumerus -10.3137 32.5912 -80.3349
rradius 62.2217
rwrist 21.1703
rhand -46.6759 29.2756
rfingers 7.12502
rthumb -19.3957 0.22288
lclavicle 3.97569e-015 -9.54166e-015
lhumerus -5.93563 -38.4732 84.8749
lradius 55.504
lwrist -34.2756
lhand -22.14 60.8623
lfingers 7.12502
lthumb 4.27354 -450.799
rfemur -44.2601 -8.89586 2.34648
rtibia 38.0002
rfoot -15.6384 -11.2215
rtoes -29.6338
lfemur -36.5625 6.39842 -7.15052
ltibia 22.9705
lfoot -10.0815 1.01809
ltoes -33.0029
423
root 6.53088 17.2624 -6.77567 25.905 -0.79224 3.22721
lowerback 24.7182 0.381118 -0.403217
upperback 5.53005 0.542108 1.65105
thorax -7.65441 0.275123 1.87905
lowerneck -16.3217 -4.70066 -13.6922
upperneck 8.12042 -4.7048 11.0979
head 5.70746 -1.95334 5.32327
rclavicle 1.59028e-015 -7.15625e-015
rhumerus -10.3117 32.7703 -80.3632
rradius 62.2221
rwrist 21.0924
rhand -47.1354 29.3117
rfingers 7.12502
rthumb -19.8374 0.304068
lclavicle 1.59028e-015 -7.15625e-015
lhumerus -5.89937 -38.4319 84.8189
lradius 55.4478
lwrist -34.4113
lhand -21.8065 60.0945
lfingers 7.12502
lthumb 4.59559 -450.025
rfemur -44.1713 -8.83956 1.98718
rtibia 38.0081
rfoot -15.6601 -11.0393
rtoes -29.8663
lfemur -36.3872 6.36018 -7.45321
ltibia 22.9742
lfoot -10.292 1.15738
ltoes -32.8135
424
root 6.53855 17.2628 -6.77335 25.8976 -0.982729 3.43792
lowerback 24.697 0.411151 -0.642957
upperback 5.52059 0.513048 1.56436
thorax -7.65391 0.265138 1.9304
lowerneck -16.2425 -4.69534 -13.7435
upperneck 8.05065 -4.71222 11.2503
head 5.67947 -1.94975 5.38161
rclavicle -3.97569e-015 1.03368e-014
rhumerus -10.2298 32.9038 -80.3595
rradius 62.2491
rwrist 21.1043
rhand -46.9367 28.858
rfingers 7.12502
rthumb -19.6465 -0.169244
lclavicle -3.97569e-015 1.03368e-014
lhumerus -6.02086 -38.1715 84.9603
lradius 55.5545
lwrist -34.5765
lhand -21.694 60.239
lfingers 7.12502
lthumb 4.70427 -450.167
rfemur -44.2084 -8.86278 1.69741
rtibia 38.0079
rfoot -15.5499 -11.0219
rtoes -30.0268
lfemur -36.333 6.33779 -7.75592
ltibia 22.9709
lfoot -10.3334 1.47006
ltoes -31.9286
425
root 6.54487 17.2634 -6.77195 25.8968 -1.03282 3.48058
lowerback 24.7801 0.418493 -0.642928
upperback 5.45914 0.520867 1.54093
thorax -7.76452 0.269768 1.90284
lowerneck -16.1202 -4.67743 -13.5552
upperneck 7.96826 -4.70585 10.9817
head 5.62025 -1.96231 5.26164
rclavicle 3.18055e-015 1.03368e-014
rhumerus -10.1226 32.9444 -80.3113
rradius 62.141
rwrist 20.8786
rhand -46.3437 28.8316
rfingers 7.12502
rthumb -19.0762 -0.252947
lclavicle 3.18055e-015 1.03368e-014
lhumerus -6.11154 -38.1443 84.9861
lradius 55.6713
lwrist -34.513
lhand -21.6902 60.3109
lfingers 7.12502
lthumb 4.70788 -450.239
rfemur -44.1992 -8.89564 1.65004
rtibia 37.976
rfoot -15.4718 -10.9983
rtoes -30.1816
lfemur -36.322 6.30227 -7.8247
ltibia 22.9872
lfoot -10.0609 1.86227
ltoes -31.6301
426
root 6.54903 17.2624 -6.7686 25.8531 -1.00335 3.36421
lowerback 24.8415 0.420787 -0.533049
upperback 5.45863 0.557273 1.60753
thorax -7.79765 0.285463 1.90202
lowerneck -16.2253 -4.67586 -12.9536
upperneck 8.03222 -4.71666 10.1274
head 5.61892 -2.00561 4.87814
rclavicle 1.11319e-014 1.11319e-014
rhumerus -9.96929 32.9542 -80.1694
rradius 62.0289
rwrist 20.7177
rhand -46.543 28.967
rfingers 7.12502
rthumb -19.2679 -0.0984879
lclavicle 1.11319e-014 1.11319e-014
lhumerus -5.94116 -38.4186 84.7839
lradius 55.6254
lwrist -34.1369
lhand -21.791 60.2658
lfingers 7.12502
lthumb 4.6106 -450.196
rfemur -44.1261 -8.96661 1.84284
rtibia 37.9155
rfoot -15.4011 -10.9085
rtoes -30.716
lfemur -36.2545 6.26086 -7.65141
ltibia 23.0215
lfoot -9.91779 1.84819
ltoes -31.1525
427
root 6.55372 17.2641 -6.76575 25.8329 -0.968999 3.23695
lowerback 24.8162 0.416613 -0.488595
upperback 5.48656 0.574185 1.73287
thorax -7.75532 0.292946 2.00908
lowerneck -16.0931 -4.70158 -12.8618
upperneck 7.85542 -4.7309 9.75091
head 5.53016 -2.0383 4.73708
rclavicle 3.18055e-015 1.90833e-014
rhumerus -9.85144 33.1492 -80.0149
rradius 61.9426
rwrist 20.598
rhand -47.0023 28.8265
rfingers 7.12502
rthumb -19.7094 -0.194352
lclavicle 3.18055e-015 1.90833e-014
lhumerus -5.81128 -38.623 84.7531
lradius 55.4717
lwrist -33.8678
lhand -22.0347 60.5597
lfingers 7.12502
lthumb 4.3753 -450.495
rfemur -44.0634 -8.99607 2.02847
rtibia 37.8168
rfoot -15.2596 -10.9947
rtoes -31.0344
lfemur -36.2126 6.2124 -7.46631
ltibia 23.0742
lfoot -10.2371 1.54674
ltoes -30.2747
428
root 6.55851 17.2676 -6.76142 25.9024 -1.03784 3.34481
lowerback 24.7289 0.420208 -0.659106
upperback 5.45686 0.538495 1.75218
thorax -7.74372 0.279564 2.13921
lowerneck -15.9091 -4.71972 -13.081
upperneck 7.71251 -4.7364 9.85115
head 5.46419 -2.04456 4.80573
rclavicle 0 -3.18055e-015
rhumerus -9.77891 33.3389 -79.9644
rradius 61.8144
rwrist 20.5425
rhand -47.272 28.7647
rfingers 7.12502
rthumb -19.9688 -0.229306
lclavicle 0 -3.18055e-015
lhumerus -5.87246 -38.6208 84.8843
lradius 55.3984
lwrist -33.8232
lhand -22.1762 60.7749
lfingers 7.12502
lthumb 4.23864 -450.713
rfemur -44.0668 -8.96196 1.85779
rtibia 37.6938
rfoot -15.1845 -11.0582
rtoes -30.9743
lfemur -36.2967 6.29749 -7.67349
ltibia 23.1346
lfoot -10.4164 1.42204
ltoes -30.0838
429
root 6.56318 17.2686 -6.75492 26.0306 -1.19068 3.36861
lowerback 24.4813 0.428248 -0.698082
upperback 5.48705 0.530283 1.66918
thorax -7.58288 0.274313 2.07149
lowerneck -16.1401 -4.68716 -12.6995
upperneck 7.82824 -4.70272 9.45802
head 5.51354 -2.03856 4.61674
rclavicle -6.36111e-015 1.59028e-015
rhumerus -9.57155 33.2673 -79.9793
rradius 61.7074
rwrist 20.7015
rhand -47.1168 28.6899
rfingers 7.12502
rthumb -19.8196 -0.319533
lclavicle -6.36111e-015 1.59028e-015
lhumerus -5.74528 -38.5072 84.7871
lradius 55.3746
lwrist -33.8816
lhand -22.1011 60.6282
lfingers 7.12502
lthumb 4.31112 -450.564
rfemur -44.159 -8.76116 1.69912
rtibia 37.5755
rfoot -15.123 -11.1374
rtoes -30.8531
lfemur -36.4216 6.57281 -7.88014
ltibia 23.1674
lfoot -10.2362 1.4715
ltoes -30.742
430
root 6.56749 17.2686 -6.75001 26.1198 -1.3705 3.43054
lowerback 24.3065 0.462379 -0.721401
upperback 5.4968 0.555551 1.53815
thorax -7.48265 0.284971 1.93264
lowerneck -16.3521 -4.69825 -12.0801
upperneck 7.90439 -4.75546 8.85403
head 5.54541 -2.08269 4.31112
rclavicle -3.18055e-015 3.97569e-015
rhumerus -9.38013 33.0994 -79.9732
rradius 61.5876
rwrist 20.9651
rhand -46.4276 28.7023
rfingers 7.12502
rthumb -19.1569 -0.374254
lclavicle -3.18055e-015 3.97569e-015
lhumerus -5.60205 -38.5108 84.6152
lradius 55.3594
lwrist -33.9298
lhand -21.9122 60.3913
lfingers 7.12502
lthumb 4.49355 -450.324
rfemur -44.2455 -8.65732 1.54589
rtibia 37.4897
rfoot -15.103 -11.2293
rtoes -30.4679
lfemur -36.4988 6.71153 -8.04928
ltibia 23.2178
lfoot -10.0882 1.4746
ltoes -31.5354
431
root 6.57243 17.2687 -6.74866 26.1607 -1.442 3.58188
lowerback 24.3025 0.494117 -0.807082
upperback 5.4554 0.568817 1.4613
thorax -7.52675 0.292946 1.89369
lowerneck -16.3859 -4.66565 -11.7354
upperneck 7.88175 -4.73302 8.462
head 5.52184 -2.08764 4.12928
rclavicle -3.97569e-015 -1.66979e-014
rhumerus -9.2592 33.0679 -79.8345
rradius 61.5555
rwrist 20.9254
rhand -46.1697 28.8209
rfingers 7.12502
rthumb -18.9089 -0.280036
lclavicle -3.97569e-015 -1.66979e-014
lhumerus -5.54292 -38.8824 84.5111
lradius 55.3447
lwrist -33.4014
lhand -21.769 60.1244
lfingers 7.12502
lthumb 4.63184 -450.054
rfemur -44.2817 -8.87722 1.44072
rtibia 37.4346
rfoot -15.1198 -11.0418
rtoes -30.2335
lfemur -36.5871 6.60676 -8.20552
ltibia 23.3166
lfoot -10.0271 1.6112
ltoes -31.5702
432
root 6.57858 17.2667 -6.74622 26.2201 -1.44726 3.51822
lowerback 24.1973 0.511498 -0.715872
upperback 5.46895 0.613422 1.46641
thorax -7.45893 0.311941 1.83324
lowerneck -16.6034 -4.51401 -11.5404
upperneck 8.16055 -4.52284 8.18255
head 5.61101 -1.99612 4.02813
rclavicle -4.77083e-015 2.38542e-015
rhumerus -9.10614 33.1085 -79.6744
rradius 61.5828
rwrist 20.6127
rhand -46.6039 28.76
rfingers 7.12502
rthumb -19.3264 -0.299604
lclavicle -4.77083e-015 2.38542e-015
lhumerus -5.35569 -38.9002 84.4217
lradius 55.2357
lwrist -33.5532
lhand -20.8819 59.4194
lfingers 7.12502
lthumb 5.48835 -270.672
rfemur -44.3451 -9.02286 1.5696
rtibia 37.3822
rfoot -14.9525 -10.8565
rtoes -30.6873
lfemur -36.6927 6.65762 -8.19251
ltibia 23.403
lfoot -10.0379 1.73845
ltoes -31.8665
